<?xml version="1.0" standalone="no"?>
<!DOCTYPE svg PUBLIC "-//W3C//DTD SVG 20010904//EN"
        "http://www.w3.org/TR/2001/REC-SVG-20010904/DTD/svg10.dtd">
<svg version="1.0" xmlns="http://www.w3.org/2000/svg"
     width="1335.000000pt" height="1049.000000pt" viewBox="0 0 1335.000000 1049.000000"
     preserveAspectRatio="xMidYMid meet">

    <g transform="translate(0.000000,1049.000000) scale(0.100000,-0.100000)"
       fill="#FFF" stroke="none">
        <path d="M6310 10474 c-47 -2 -267 -8 -490 -14 -1143 -30 -1959 -77 -2445
-141 -178 -23 -234 -38 -334 -89 -335 -169 -599 -510 -864 -1115 -107 -243
-306 -747 -442 -1120 -65 -176 -119 -322 -122 -324 -2 -3 -11 6 -20 20 -35 54
-172 176 -233 209 -59 32 -72 35 -145 34 -54 0 -121 -11 -210 -33 -256 -63
-510 -146 -548 -179 -36 -32 -113 -330 -124 -483 -6 -74 -5 -76 27 -113 18
-20 58 -50 89 -66 116 -58 138 -61 509 -67 l343 -6 -33 -34 c-18 -19 -132
-112 -253 -206 -640 -499 -846 -723 -952 -1032 -55 -161 -52 -35 -52 -2686 -1
-2712 -5 -2523 64 -2663 82 -166 234 -292 415 -343 60 -17 117 -18 790 -18
809 0 781 -2 921 71 167 88 282 234 329 419 18 69 20 111 20 352 l0 273 43 0
c23 -1 76 -5 117 -10 288 -37 1472 -102 2385 -132 524 -17 2655 -17 3165 0
936 31 1910 85 2328 127 78 8 157 15 176 15 l34 0 5 -292 c3 -229 8 -305 20
-348 63 -214 225 -380 442 -451 70 -23 72 -23 740 -27 445 -2 702 0 764 8 220
25 401 149 501 341 76 147 71 -80 68 2716 l-3 2508 -28 88 c-107 342 -317 577
-968 1083 -107 83 -216 172 -244 197 l-50 46 240 1 c359 2 485 11 566 44 77
31 146 86 164 130 30 75 -63 496 -123 556 -55 54 -632 220 -768 220 -86 0
-237 -95 -328 -206 -28 -35 -54 -60 -58 -56 -4 4 -40 99 -81 212 -394 1079
-616 1575 -850 1899 -136 189 -329 359 -501 444 -107 53 -138 61 -334 87 -464
61 -1183 103 -2397 140 -353 11 -1132 19 -1265 14z m800 -639 c1172 -20 2476
-90 2810 -151 114 -21 139 -35 213 -114 211 -228 482 -726 689 -1264 74 -193
248 -668 248 -678 0 -4 -1978 -8 -4396 -8 -3513 0 -4395 3 -4391 13 2 6 46
127 97 267 120 333 242 640 324 820 179 390 432 791 570 904 35 30 60 40 137
55 201 42 824 88 1634 121 615 24 1548 49 1675 44 41 -2 217 -6 390 -9z m4259
-2963 c110 -252 140 -286 496 -562 331 -257 462 -368 569 -481 143 -149 232
-278 266 -383 31 -95 -68 -1931 -156 -2896 -29 -317 -39 -397 -56 -437 -39
-89 -107 -153 -193 -179 -48 -14 -608 -88 -626 -82 -5 2 11 30 37 63 170 217
285 462 334 712 31 154 37 375 16 523 -20 139 -48 202 -117 264 -66 59 -131
81 -234 79 -104 -2 -204 -33 -730 -223 -568 -205 -785 -274 -1080 -345 -285
-69 -53 -65 -3234 -65 -3257 0 -2941 -8 -3306 85 -297 76 -470 132 -1002 324
-568 205 -630 223 -743 224 -71 1 -94 -3 -141 -25 -100 -46 -154 -117 -186
-245 -25 -100 -25 -463 0 -588 52 -254 166 -500 331 -710 30 -38 54 -71 52
-72 -3 -3 -449 53 -542 67 -85 14 -128 34 -184 86 -84 78 -93 116 -130 519
-72 791 -157 2251 -161 2746 l-1 175 32 66 c68 140 258 356 455 519 50 41 203
162 340 269 138 107 274 217 303 244 76 71 140 173 202 319 l54 127 4642 0
4641 0 52 -118z m-8629 -4412 c317 -107 484 -153 705 -197 l140 -28 3020 -3
c2179 -2 3046 0 3115 8 310 37 651 135 1352 389 168 61 311 111 317 111 19 0
12 -77 -14 -147 -121 -322 -391 -581 -820 -789 l-170 -82 -170 -11 c-1011 -67
-1630 -93 -2660 -112 -881 -16 -2059 -4 -2930 31 -664 26 -1607 83 -1685 101
-25 5 -108 41 -185 79 -415 205 -684 464 -800 773 -14 38 -25 88 -25 116 l0
49 258 -95 c141 -52 390 -139 552 -193z m-2027 -1064 c146 -81 333 -118 957
-186 107 -11 205 -23 218 -26 l22 -4 0 -270 0 -270 -635 0 -635 0 0 395 c0
217 3 395 6 395 3 0 33 -15 67 -34z m11997 -361 l0 -395 -635 0 -635 0 0 270
0 270 23 4 c12 3 47 7 77 10 138 14 512 59 674 82 198 28 326 64 421 118 33
19 63 35 68 35 4 1 7 -177 7 -394z"/>
        <path d="M1040 5713 c-102 -39 -163 -175 -201 -450 -20 -142 -21 -169 -10
-265 20 -190 74 -321 171 -418 96 -95 196 -132 365 -132 126 0 170 14 295 97
194 129 217 134 585 144 241 7 289 11 342 29 35 11 159 74 275 140 117 66 237
132 266 146 28 15 52 28 52 30 0 9 -177 155 -253 209 -179 128 -419 213 -867
306 -269 55 -945 172 -987 170 -10 0 -25 -3 -33 -6z"/>
        <path d="M12095 5694 c-994 -171 -1282 -240 -1518 -361 -99 -51 -165 -98 -309
-216 l-97 -81 127 -69 c70 -38 188 -104 262 -146 217 -124 245 -131 532 -131
333 0 414 -19 595 -140 128 -85 184 -104 314 -103 161 1 272 45 362 143 145
157 195 397 148 707 -38 251 -92 369 -186 409 -44 18 -60 17 -230 -12z"/>
        <path d="M5865 5070 c-1159 -46 -1937 -147 -2267 -294 -115 -52 -120 -51 229
-64 1069 -42 1923 -107 2190 -168 150 -34 372 -177 573 -370 l85 -82 78 74
c193 182 385 314 535 365 185 64 1081 136 2236 180 307 12 318 13 297 30 -12
10 -57 32 -101 48 -351 136 -943 216 -2000 272 -264 13 -1568 20 -1855 9z"/>
    </g>
</svg>
